<?xml version="1.0" encoding="UTF-8"?>
<svg width="163px" height="48px" viewBox="0 0 163 48" version="1.1" xmlns="http://www.w3.org/2000/svg" xmlns:xlink="http://www.w3.org/1999/xlink">
    <title>logo黑</title>
    <g id="logo黑" stroke="none" stroke-width="1" fill="none" fill-rule="evenodd">
        <g id="圆周率科技" transform="translate(6.000000, 4.000000)" fill-rule="nonzero">
            <g id="编组">
                <path d="M34.5467523,0 C34.5467523,0.03125 34.5467523,0.0625 34.5467523,0.0625 C34.5467523,4.5625 30.9036403,8.1875 26.3811563,8.1875 C21.8586724,8.1875 18.2155603,4.5625 18.2155603,0.0625 C18.2155603,0.03125 18.2155603,0 18.2155603,0 L8.79371877,0 C8.79371877,0.03125 8.79371877,0.0625 8.79371877,0.0625 C8.79371877,9.71875 16.6766595,17.5625 26.3811563,17.5625 C36.0856531,17.5625 43.9685939,9.71875 43.9685939,0.0625 C43.9685939,0.03125 43.9685939,0 43.9685939,0 L34.5467523,0 L34.5467523,0 Z" id="路径" stroke="#FFFFFF" stroke-width="0.5" fill="#000000"></path>
                <rect id="矩形" stroke="#FFFFFF" stroke-width="0.5" fill="#000000" x="8.79371877" y="0" width="9.42184154" height="40"></rect>
                <ellipse id="椭圆形" fill="#00FF17" cx="3.14061385" cy="36.875" rx="3.14061385" ry="3.125"></ellipse>
                <path d="M18.2469665,40 C18.2469665,39.96875 18.2469665,39.9375 18.2469665,39.9375 C18.2469665,35.4375 21.8900785,31.8125 26.4125625,31.8125 C30.9350464,31.8125 34.5781585,35.4375 34.5781585,39.9375 C34.5781585,39.96875 34.5781585,40 34.5781585,40 L44,40 C44,39.96875 44,39.9375 44,39.9375 C44,30.28125 36.1170592,22.4375 26.4125625,22.4375 C16.7080657,22.4375 8.82512491,30.28125 8.82512491,39.9375 C8.82512491,39.96875 8.82512491,40 8.82512491,40 L18.2469665,40 Z" id="路径" stroke="#FFFFFF" stroke-width="0.5" fill="#000000"></path>
            </g>
            <g id="编组" transform="translate(54.000000, 2.000000)" fill="#000000">
                <g id="形状">
                    <path d="M17.46752,0.34252669 L17.46752,18.1850534 L0.25088,18.1850534 L0.25088,1.08985765 L0,0.37366548 L17.46752,0.37366548 L17.46752,0.34252669 Z M15.08416,2.42882562 L2.60288,2.42882562 L2.60288,16.1298932 L15.08416,16.1298932 L15.08416,2.42882562 Z M14.20608,7.87811388 L14.20608,13.0160142 L11.82272,13.0160142 L11.82272,9.49733096 L5.89568,9.49733096 L5.89568,13.0160142 L3.51232,13.0160142 L3.51232,8.75 L3.16736,7.87811388 L14.20608,7.87811388 Z M10.00384,15.4448399 L8.81216,11.7704626 L7.84,15.4448399 L3.23008,15.4448399 L3.23008,13.1717082 L3.79456,13.6699288 L5.9584,13.6699288 L6.71104,10.5871886 L6.36608,10.0266904 L9.21984,10.0266904 L8.9376,11.0854093 L11.32096,11.0854093 L10.976,11.6770463 L11.6032,13.6699288 L14.33152,13.6699288 L14.33152,16.0364769 C14.2688,15.7873665 14.17472,15.6316726 14.04928,15.5382562 C13.92384,15.4448399 13.7984,15.4137011 13.67296,15.4137011 L10.00384,15.4137011 L10.00384,15.4448399 Z M14.01792,2.98932384 L14.01792,7.28647687 L3.73184,7.28647687 L3.73184,3.7366548 L3.48096,2.98932384 L14.01792,2.98932384 Z M11.63456,4.51512456 L6.1152,4.51512456 L6.1152,5.69839858 L11.63456,5.69839858 L11.63456,4.51512456 Z"></path>
                    <path d="M37.88288,0.3113879 L37.88288,18.1227758 L35.02912,18.1227758 L35.49952,17.344306 L35.49952,2.39768683 L23.2064,2.39768683 L23.2064,18.1227758 L20.82304,18.1227758 L20.82304,0.903024911 L20.47808,0.34252669 L37.88288,0.34252669 L37.88288,0.3113879 Z M34.62144,6.8816726 C34.55872,6.66370107 34.46464,6.50800712 34.3392,6.41459075 C34.21376,6.32117438 34.05696,6.29003559 33.96288,6.29003559 L30.95232,6.29003559 L30.95232,7.84697509 L35.06048,7.84697509 L35.06048,10.524911 C34.99776,10.2758007 34.90368,10.088968 34.77824,10.0266904 C34.6528,9.93327402 34.52736,9.90213523 34.40192,9.90213523 L23.77088,9.93327402 L23.77088,7.37989324 L24.36672,7.87811388 L28.60032,7.87811388 L28.60032,6.32117438 L24.20992,6.32117438 L24.20992,3.76779359 L24.7744,4.26601423 L28.60032,4.26601423 L28.60032,3.64323843 L28.25536,3.08274021 L30.95232,3.08274021 L30.95232,4.29715302 L34.62144,4.29715302 L34.62144,6.8816726 L34.62144,6.8816726 Z M34.62144,10.9297153 L34.62144,18.247331 L24.08448,18.247331 L24.08448,11.7081851 L23.80224,10.9608541 L34.62144,10.9608541 L34.62144,10.9297153 Z M32.20672,13.047153 L26.40512,13.047153 L26.40512,16.3790036 L32.20672,16.3790036 L32.20672,13.047153 Z"></path>
                    <path d="M58.3296,3.86120996 C58.29824,3.7366548 58.26688,3.64323843 58.1728,3.58096085 C58.11008,3.51868327 58.016,3.45640569 57.95328,3.39412811 C57.8592,3.33185053 57.79648,3.30071174 57.7024,3.30071174 C57.60832,3.26957295 57.5456,3.26957295 57.48288,3.26957295 L40.86208,3.26957295 L40.86208,0.716192171 L41.42656,1.21441281 L48.23168,1.21441281 L48.23168,0.934163701 L47.88672,0.37366548 L50.58368,0.37366548 L50.58368,1.21441281 L58.29824,1.21441281 L58.29824,3.86120996 L58.3296,3.86120996 Z M43.4336,11.116548 L40.86208,11.116548 L42.46144,8.15836299 L42.24192,7.56672598 L45.1584,7.56672598 L43.4336,11.116548 Z M58.29824,15.8807829 C58.26688,15.7562278 58.20416,15.6628114 58.14144,15.569395 C58.07872,15.4759786 57.98464,15.4137011 57.92192,15.3825623 C57.82784,15.3202847 57.76512,15.2891459 57.67104,15.2891459 C57.57696,15.2580071 57.51424,15.2580071 57.45152,15.2580071 L51.21088,15.2580071 L51.21088,18.1850534 L48.82752,18.1850534 L48.82752,15.2580071 L40.89344,15.2580071 L40.89344,12.7046263 L41.45792,13.202847 L48.82752,13.202847 L48.82752,12.3932384 L48.48256,11.8327402 L51.21088,11.8327402 L51.21088,13.2339858 L58.29824,13.2339858 L58.29824,15.8807829 Z M44.81344,6.66370107 L42.4928,6.66370107 L41.52064,4.7019573 L41.05024,4.11032028 L43.62176,4.11032028 L44.81344,6.66370107 Z M53.34336,4.85765125 L49.95648,9.0613879 L51.96352,9.0613879 L51.71264,7.87811388 L53.312,7.87811388 L53.9392,11.116548 L45.50336,11.116548 L45.50336,8.56316726 L46.0992,9.0613879 L47.44768,9.0613879 L48.51392,7.84697509 L45.53472,7.84697509 L45.53472,5.29359431 L46.0992,5.79181495 L46.28736,5.79181495 L47.29088,4.60854093 L47.04,4.0480427 L49.64288,4.0480427 L48.16896,5.72953737 L50.3328,5.72953737 L50.61504,5.38701068 L50.27008,4.85765125 L53.34336,4.85765125 L53.34336,4.85765125 Z M53.9392,7.53558719 L56.85568,7.53558719 L56.6048,8.1272242 L58.20416,11.0854093 L55.63264,11.0854093 L53.9392,7.53558719 Z M55.47584,4.11032028 L58.07872,4.11032028 L57.60832,4.7019573 L56.63616,6.66370107 L54.31552,6.66370107 L55.47584,4.11032028 Z"></path>
                    <path d="M65.79328,18.5587189 L63.40992,18.5587189 L63.40992,10.9919929 L62.43776,18.5587189 L60.74432,18.5587189 L61.84192,9.96441281 L61.49696,9.40391459 L63.40992,9.40391459 L63.40992,8.00266904 L60.90112,8.00266904 L60.90112,5.44928826 L61.49696,5.9475089 L63.40992,5.9475089 L63.40992,3.51868327 L62.0928,3.67437722 L61.55968,4.29715302 L61.55968,1.46352313 L67.29856,0.809608541 L67.83168,0 L67.83168,2.92704626 L65.79328,3.20729537 L65.79328,5.97864769 L67.95712,5.97864769 L67.95712,8.62544484 C67.8944,8.37633452 67.80032,8.22064057 67.67488,8.1272242 C67.54944,8.03380783 67.424,8.00266904 67.29856,8.00266904 L65.79328,8.00266904 L65.79328,9.40391459 L67.64352,9.40391459 L67.29856,9.96441281 L68.39616,18.5587189 L66.70272,18.5587189 L65.82464,11.4590747 L65.82464,18.5587189 L65.79328,18.5587189 Z M76.39296,18.5587189 L74.0096,18.5587189 L74.0096,15.2891459 L68.49024,15.2891459 L68.49024,12.7357651 L69.08608,13.2339858 L74.0096,13.2339858 L74.0096,1.27669039 L73.66464,0.685053381 L76.3616,0.685053381 L76.3616,13.2339858 L78.0864,13.2339858 L78.0864,15.8807829 C78.02368,15.6316726 77.9296,15.4759786 77.80416,15.3825623 C77.67872,15.2891459 77.55328,15.2580071 77.42784,15.2580071 L76.3616,15.2580071 L76.3616,18.5587189 L76.39296,18.5587189 Z M72.5984,12.3932384 L69.74464,12.3932384 L69.3056,8.31405694 L68.96064,7.75355872 L72.00256,7.75355872 L72.5984,12.3932384 Z M72.88064,6.60142349 L70.02688,6.60142349 L69.58784,2.52224199 L69.24288,1.96174377 L72.2848,1.96174377 L72.88064,6.60142349 Z"></path>
                    <path d="M85.9264,5.82295374 C85.86368,5.57384342 85.7696,5.41814947 85.64416,5.35587189 C85.51872,5.29359431 85.39328,5.26245552 85.26784,5.26245552 L84.54656,5.26245552 L84.54656,10.8674377 L85.39328,10.5871886 L85.9264,9.59074733 L85.9264,12.9537367 L84.54656,13.3896797 L84.54656,18.3407473 L81.6928,18.3407473 L82.1632,17.5311388 L82.1632,14.1370107 L81.03424,14.4795374 L80.4384,15.133452 L80.4384,12.2375445 L82.1632,11.6770463 L82.1632,5.29359431 L80.4384,5.29359431 L80.4384,2.70907473 L81.00288,3.20729537 L82.1632,3.20729537 L82.1632,1.08985765 L81.81824,0.529359431 L84.5152,0.529359431 L84.5152,3.20729537 L85.89504,3.20729537 L85.9264,5.82295374 Z M91.03808,18.0293594 L89.62688,18.0293594 L89.59552,18.0293594 L86.45952,18.0293594 L86.45952,15.5071174 L87.024,16.0053381 L89.34464,16.0053381 L90.59904,14.5418149 L86.61632,9.52846975 L90.72448,9.52846975 L90.41088,10.2446619 L92.22976,12.5489324 L95.61664,8.46975089 L95.61664,8.22064057 L86.42816,8.22064057 L86.42816,5.636121 L86.99264,6.13434164 L90.944,6.13434164 L90.944,3.4252669 L86.42816,3.4252669 L86.42816,0.871886121 L86.99264,1.37010676 L90.944,1.37010676 L90.944,0.840747331 L90.59904,0.24911032 L93.296,0.24911032 L93.296,1.40124555 L97.96864,1.40124555 L97.96864,4.0480427 C97.90592,3.79893238 97.81184,3.64323843 97.6864,3.54982206 C97.56096,3.45640569 97.43552,3.4252669 97.31008,3.4252669 L93.32736,3.4252669 L93.32736,6.13434164 L98,6.13434164 L98,9.59074733 L93.89184,14.5729537 L95.08352,16.0676157 L97.31008,16.0676157 L97.87456,15.569395 L97.87456,18.1227758 L96.71424,18.1227758 L96.7456,18.1539146 L93.51552,18.1539146 L92.22976,16.5658363 L91.03808,18.0293594 Z"></path>
                </g>
                <g transform="translate(0.000000, 24.443950)">
                    <path d="M6.7424,2.36654804 L6.7424,3.36298932 L5.61344,3.36298932 L5.61344,6.75711744 C5.61344,7.13078292 5.77024,7.28647687 6.1152,7.28647687 C6.272,7.28647687 6.52288,7.25533808 6.80512,7.16192171 L6.96192,8.1272242 C6.55424,8.25177936 6.14656,8.31405694 5.73888,8.31405694 C4.82944,8.31405694 4.3904,7.8158363 4.3904,6.81939502 L4.3904,3.33185053 L2.16384,3.33185053 L2.16384,8.1272242 L0.97216,8.1272242 L0.97216,3.33185053 L0,3.33185053 L0,2.33540925 L6.7424,2.33540925 L6.7424,2.36654804 Z" id="路径"></path>
                    <polygon id="路径" points="17.74976 0.15569395 17.74976 1.18327402 15.0528 1.18327402 15.0528 8.15836299 13.82976 8.15836299 13.82976 1.18327402 11.1328 1.18327402 11.1328 0.15569395"></polygon>
                    <path d="M23.26912,3.17615658 C23.70816,3.76779359 23.95904,4.57740214 23.95904,5.60498221 L19.53728,5.60498221 C19.56864,6.16548043 19.72544,6.60142349 20.00768,6.91281139 C20.28992,7.1930605 20.66624,7.34875445 21.13664,7.34875445 C21.54432,7.34875445 21.88928,7.25533808 22.14016,7.06850534 C22.32832,6.91281139 22.51648,6.66370107 22.67328,6.32117438 L23.86496,6.32117438 C23.73952,6.85053381 23.45728,7.31761566 23.0496,7.69128114 C22.54784,8.1272242 21.88928,8.34519573 21.10528,8.34519573 C20.25856,8.34519573 19.56864,8.06494662 19.06688,7.53558719 C18.53376,6.97508897 18.25152,6.22775801 18.25152,5.26245552 C18.25152,4.3905694 18.5024,3.67437722 19.00416,3.113879 C19.50592,2.52224199 20.19584,2.24199288 21.04256,2.24199288 C22.04608,2.21085409 22.76736,2.52224199 23.26912,3.17615658 Z M20.0704,3.58096085 C19.81952,3.83007117 19.66272,4.20373665 19.6,4.7019573 L22.736,4.7019573 C22.61056,3.70551601 22.07744,3.17615658 21.13664,3.17615658 C20.66624,3.17615658 20.32128,3.30071174 20.0704,3.58096085 Z" id="形状"></path>
                    <path d="M29.38432,2.70907473 C29.82336,3.08274021 30.13696,3.61209964 30.23104,4.32829181 L29.03936,4.32829181 C28.94528,3.92348754 28.78848,3.64323843 28.56896,3.45640569 C28.31808,3.26957295 28.00448,3.17615658 27.5968,3.17615658 C27.09504,3.17615658 26.71872,3.36298932 26.43648,3.7366548 C26.15424,4.11032028 25.99744,4.60854093 25.99744,5.26245552 C25.99744,5.91637011 26.12288,6.41459075 26.40512,6.78825623 C26.656,7.16192171 27.06368,7.34875445 27.56544,7.34875445 C28.44352,7.34875445 28.94528,6.91281139 29.07072,6.04092527 L30.2624,6.04092527 C30.13696,6.81939502 29.82336,7.41103203 29.38432,7.78469751 C28.94528,8.15836299 28.31808,8.34519573 27.56544,8.34519573 C26.68736,8.34519573 25.99744,8.06494662 25.49568,7.47330961 C25.02528,6.91281139 24.7744,6.19661922 24.7744,5.29359431 C24.7744,4.42170819 25.02528,3.70551601 25.49568,3.14501779 C25.99744,2.55338078 26.71872,2.24199288 27.5968,2.24199288 C28.31808,2.21085409 28.94528,2.36654804 29.38432,2.70907473 Z" id="路径"></path>
                    <path d="M32.48896,0 L32.48896,3.17615658 C32.70848,2.83362989 32.95936,2.58451957 33.30432,2.42882562 C33.58656,2.27313167 33.93152,2.21085409 34.30784,2.21085409 C34.99776,2.21085409 35.53088,2.39768683 35.9072,2.83362989 C36.25216,3.23843416 36.40896,3.79893238 36.40896,4.57740214 L36.40896,8.18950178 L35.21728,8.18950178 L35.21728,4.79537367 C35.21728,4.26601423 35.09184,3.89234875 34.90368,3.64323843 C34.68416,3.36298932 34.3392,3.23843416 33.8688,3.23843416 C33.46112,3.23843416 33.14752,3.39412811 32.89664,3.70551601 C32.64576,4.01690391 32.52032,4.45284698 32.52032,4.95106762 L32.52032,8.18950178 L31.32864,8.18950178 L31.32864,0.03113879 L32.48896,0.03113879 L32.48896,0 Z" id="路径"></path>
                    <path d="M42.86912,4.57740214 L42.86912,8.15836299 L41.67744,8.15836299 L41.67744,4.67081851 C41.67744,3.67437722 41.20704,3.17615658 40.2976,3.17615658 C39.95264,3.17615658 39.63904,3.30071174 39.41952,3.54982206 C39.13728,3.83007117 38.98048,4.20373665 38.94912,4.67081851 L38.94912,8.15836299 L37.75744,8.15836299 L37.75744,2.36654804 L38.94912,2.36654804 L38.94912,3.08274021 C39.16864,2.8024911 39.41952,2.58451957 39.73312,2.42882562 C40.01536,2.27313167 40.36032,2.21085409 40.70528,2.21085409 C42.14784,2.21085409 42.86912,2.98932384 42.86912,4.57740214 Z" id="路径"></path>
                    <path d="M49.04704,3.08274021 C49.58016,3.64323843 49.83104,4.3905694 49.83104,5.26245552 C49.83104,6.13434164 49.58016,6.85053381 49.04704,7.41103203 C48.51392,8.00266904 47.79264,8.28291815 46.91456,8.28291815 C46.03648,8.28291815 45.3152,7.97153025 44.78208,7.41103203 C44.24896,6.85053381 43.99808,6.13434164 43.99808,5.26245552 C43.99808,4.3905694 44.24896,3.64323843 44.78208,3.08274021 C45.3152,2.4911032 46.03648,2.21085409 46.91456,2.21085409 C47.824,2.21085409 48.51392,2.4911032 49.04704,3.08274021 Z M45.66016,3.83007117 C45.37792,4.20373665 45.25248,4.67081851 45.25248,5.26245552 C45.25248,5.85409253 45.37792,6.32117438 45.66016,6.69483986 C45.97376,7.13078292 46.38144,7.34875445 46.94592,7.34875445 C47.5104,7.34875445 47.91808,7.13078292 48.23168,6.69483986 C48.51392,6.32117438 48.63936,5.85409253 48.63936,5.26245552 C48.63936,4.67081851 48.51392,4.20373665 48.23168,3.83007117 C47.91808,3.39412811 47.47904,3.17615658 46.94592,3.17615658 C46.4128,3.17615658 45.9424,3.39412811 45.66016,3.83007117 Z" id="形状"></path>
                    <polygon id="路径" points="52.30848 0 52.30848 8.15836299 51.1168 8.15836299 51.1168 0"></polygon>
                    <path d="M58.61184,3.08274021 C59.14496,3.64323843 59.39584,4.3905694 59.39584,5.26245552 C59.39584,6.13434164 59.14496,6.85053381 58.61184,7.41103203 C58.07872,8.00266904 57.35744,8.28291815 56.47936,8.28291815 C55.60128,8.28291815 54.88,7.97153025 54.34688,7.41103203 C53.81376,6.85053381 53.56288,6.13434164 53.56288,5.26245552 C53.56288,4.3905694 53.81376,3.64323843 54.34688,3.08274021 C54.88,2.4911032 55.60128,2.21085409 56.47936,2.21085409 C57.3888,2.21085409 58.07872,2.4911032 58.61184,3.08274021 Z M55.22496,3.83007117 C54.94272,4.20373665 54.81728,4.67081851 54.81728,5.26245552 C54.81728,5.85409253 54.94272,6.32117438 55.22496,6.69483986 C55.53856,7.13078292 55.94624,7.34875445 56.51072,7.34875445 C57.0752,7.34875445 57.48288,7.13078292 57.79648,6.69483986 C58.07872,6.32117438 58.20416,5.85409253 58.20416,5.26245552 C58.20416,4.67081851 58.07872,4.20373665 57.79648,3.83007117 C57.48288,3.39412811 57.04384,3.17615658 56.51072,3.17615658 C55.9776,3.17615658 55.5072,3.39412811 55.22496,3.83007117 Z" id="形状"></path>
                    <path d="M64.7584,3.14501779 L64.7584,2.36654804 L65.95008,2.36654804 L65.95008,7.78469751 C65.95008,9.62188612 65.04064,10.5560498 63.22176,10.5560498 C62.4064,10.5560498 61.7792,10.4003559 61.37152,10.088968 C60.93248,9.77758007 60.6816,9.31049822 60.55616,8.65658363 L61.74784,8.65658363 C61.81056,8.99911032 61.936,9.24822064 62.18688,9.3727758 C62.4064,9.49733096 62.75136,9.59074733 63.22176,9.59074733 C64.22528,9.59074733 64.7584,9.03024911 64.7584,7.94039146 L64.7584,7.03736655 C64.31936,7.69128114 63.75488,8.00266904 62.97088,8.00266904 C62.18688,8.00266904 61.52832,7.72241993 61.05792,7.1930605 C60.55616,6.66370107 60.33664,5.97864769 60.33664,5.10676157 C60.33664,4.23487544 60.58752,3.54982206 61.05792,2.98932384 C61.52832,2.42882562 62.18688,2.1797153 62.97088,2.1797153 C63.75488,2.21085409 64.31936,2.52224199 64.7584,3.14501779 Z M61.99872,3.70551601 C61.71648,4.0480427 61.55968,4.51512456 61.55968,5.13790036 C61.55968,5.69839858 61.68512,6.13434164 61.90464,6.47686833 C62.15552,6.85053381 62.59456,7.06850534 63.15904,7.06850534 C63.6608,7.06850534 64.06848,6.91281139 64.35072,6.5702847 C64.63296,6.22775801 64.7584,5.76067616 64.7584,5.16903915 C64.7584,4.57740214 64.6016,4.07918149 64.35072,3.7366548 C64.06848,3.36298932 63.6608,3.20729537 63.15904,3.20729537 C62.65728,3.20729537 62.2496,3.33185053 61.99872,3.70551601 Z" id="形状"></path>
                    <polygon id="路径" points="67.98848 2.36654804 69.58784 6.60142349 71.12448 2.36654804 72.4416 2.36654804 69.27424 10.3692171 67.98848 10.3692171 68.992 8.00266904 66.67136 2.33540925 67.98848 2.33540925"></polygon>
                </g>
            </g>
        </g>
    </g>
</svg>