<?xml version="1.0" encoding="utf-8"?>
<!-- Generator: Adobe Illustrator 25.0.1, SVG Export Plug-In . SVG Version: 6.00 Build 0)  -->
<svg version="1.1" id="图层_1" xmlns="http://www.w3.org/2000/svg" xmlns:xlink="http://www.w3.org/1999/xlink" x="0px" y="0px"
	 viewBox="0 0 528 320" style="enable-background:new 0 0 528 320;" xml:space="preserve">
<style type="text/css">
	.st0{fill-rule:evenodd;clip-rule:evenodd;}
	.st1{fill-rule:evenodd;clip-rule:evenodd;fill:#FFFFFF;fill-opacity:0.2;stroke:#FFFFFF;}
	.st2{fill-rule:evenodd;clip-rule:evenodd;fill:#FFFFFF;fill-opacity:0.2;stroke:#FFFFFF;stroke-width:2;stroke-dasharray:5;}
	.st3{fill-rule:evenodd;clip-rule:evenodd;fill:#285B2D;stroke:#00FF17;}
	.st4{fill:none;stroke:#00FF17;stroke-linecap:square;}
	.st5{fill-rule:evenodd;clip-rule:evenodd;fill:#5B5B5B;stroke:#FFFFFF;}
	.st6{fill:none;stroke:#FFFFFF;stroke-linecap:square;}
	.st7{fill:#FFFFFF;}
	.st8{fill-rule:evenodd;clip-rule:evenodd;fill:#FFFFFF;}
	.st9{fill-rule:evenodd;clip-rule:evenodd;fill:#00FF17;stroke:#FFFFFF;}
	.st10{fill:#333333;}
</style>
<rect id="矩形" class="st0" width="528" height="320"/>
<rect id="矩形_1_" x="126.5" y="64.5" class="st1" width="90" height="19"/>
<g id="矩形备份-5">
	<rect id="path-1_1_" x="125" y="97" class="st2" width="154" height="20"/>
</g>
<g id="编组-18" transform="translate(125.000000, 130.000000)">
	<rect id="矩形备份-7" x="0.5" y="0.5" class="st3" width="153" height="61.7"/>
	<line id="直线-11" class="st4" x1="0.6" y1="63.4" x2="153.4" y2="0.6"/>
	<line id="直线-11_1_" class="st4" x1="153.4" y1="63.4" x2="0.6" y2="0.6"/>
</g>
<g id="编组-18备份" transform="translate(126.000000, 207.000000)">
	<rect id="矩形备份-7_1_" x="0.5" y="0.5" class="st5" width="69" height="61.7"/>
	<line id="直线-11_2_" class="st6" x1="0.3" y1="63.4" x2="69.7" y2="0.6"/>
	<line id="直线-11_3_" class="st6" x1="69.7" y1="63.4" x2="0.3" y2="0.6"/>
</g>
<g id="编组-18备份-2" transform="translate(209.000000, 207.000000)">
	<rect id="矩形备份-7_2_" x="0.5" y="0.5" class="st1" width="69" height="61.7"/>
	<line id="直线-11_4_" class="st6" x1="0.3" y1="63.4" x2="69.7" y2="0.6"/>
	<line id="直线-11_5_" class="st6" x1="69.7" y1="63.4" x2="0.3" y2="0.6"/>
</g>
<g id="编组-21" transform="translate(195.435692, 49.222826)">
	<path id="路径-2" class="st7" d="M0.6,25.2c1.4-0.9,2.8-1.8,4.2-2.7l-0.5-0.8c-1.4,0.9-2.8,1.8-4.2,2.7L0.6,25.2z M9,19.9
		c1.4-0.9,2.9-1.7,4.3-2.5l-0.5-0.9c-1.4,0.8-2.9,1.6-4.3,2.5L9,19.9z M17.7,15c1.5-0.8,3-1.5,4.5-2.2l-0.4-0.9
		c-1.5,0.7-3,1.4-4.5,2.2L17.7,15z M26.7,10.8c1.5-0.7,3.1-1.3,4.6-1.9L31,8c-1.5,0.6-3.1,1.2-4.6,1.9L26.7,10.8z M36,7.2
		c1.6-0.5,3.2-1.1,4.7-1.5l-0.3-1c-1.6,0.5-3.2,1-4.8,1.5L36,7.2z M45.6,4.3c1.6-0.4,3.2-0.8,4.9-1.1l-0.2-1
		c-1.6,0.3-3.3,0.7-4.9,1.1L45.6,4.3z M55.3,2.3C57,2,58.6,1.8,60.2,1.6l-0.1-1c-1.7,0.2-3.3,0.4-5,0.7L55.3,2.3z M65.2,1.2
		c1.7-0.1,3.3-0.2,5-0.2l0-1c-1.7,0-3.3,0.1-5,0.2L65.2,1.2z M75.2,1.1c1.7,0.1,3.3,0.2,5,0.3l0.1-1c-1.7-0.2-3.3-0.3-5-0.3
		L75.2,1.1z M85,2c1.6,0.2,3.3,0.5,4.9,0.8l0.2-1c-1.6-0.3-3.3-0.6-5-0.8L85,2z M94.8,3.8c1.6,0.4,3.2,0.8,4.8,1.3l0.3-1
		c-1.6-0.5-3.2-0.9-4.9-1.3L94.8,3.8z M104.4,6.7c1.6,0.5,3.1,1.1,4.7,1.7l0.4-0.9c-1.6-0.6-3.1-1.2-4.7-1.8L104.4,6.7z M113.6,10.4
		c1.5,0.7,3,1.4,4.5,2.1l0.4-0.9c-1.5-0.8-3-1.5-4.5-2.2L113.6,10.4z M122.6,14.9c1.4,0.8,2.9,1.6,4.3,2.5l0.5-0.9
		c-1.4-0.9-2.9-1.7-4.3-2.5L122.6,14.9z M131.1,20c1.4,0.9,2.8,1.8,4.1,2.8l0.6-0.8c-1.4-1-2.8-1.9-4.2-2.8L131.1,20z"/>
	<polygon id="三角形" class="st8" points="143.9,30.2 133.9,27.2 140.6,20.9 	"/>
</g>
<g id="编组-22" transform="translate(323.000000, 88.000000)">
	<rect id="矩形_2_" x="0.5" y="0.5" class="st1" width="67" height="111"/>
	<g id="编组-18_1_" transform="translate(7.000000, 49.000000)">
		<rect id="矩形备份-7_3_" x="0.5" y="0.5" class="st1" width="53" height="54"/>
		<line id="直线-11_6_" class="st6" x1="0.2" y1="54.5" x2="53.8" y2="0.5"/>
		<line id="直线-11_7_" class="st6" x1="53.8" y1="54.5" x2="0.2" y2="0.5"/>
	</g>
	<rect id="矩形_3_" x="0.5" y="0.5" class="st9" width="67" height="22"/>
	<rect id="矩形备份-9" x="7.5" y="30.5" class="st1" width="53" height="11"/>
</g>
<g>
	<rect id="path-1_2_" x="125" y="97" class="st10" width="154" height="20"/>
</g>
</svg>
