<?xml version="1.0" encoding="UTF-8"?>
<svg width="48px" height="48px" viewBox="0 0 48 48" version="1.1" xmlns="http://www.w3.org/2000/svg" xmlns:xlink="http://www.w3.org/1999/xlink">
    <title>logo</title>
    <g id="logo" stroke="none" stroke-width="1" fill="none" fill-rule="evenodd">
        <g id="圆周率空间" transform="translate(2.000000, 3.000000)" fill-rule="nonzero">
            <path d="M34.4809921,0 C34.4809921,0.0256 34.484127,0.0544 34.484127,0.08 C34.484127,4.6752 30.8350794,8.4 26.3333333,8.4 C21.8315873,8.4 18.1825397,4.6752 18.1825397,0.08 C18.1825397,0.0544 18.1856746,0.0256 18.1856746,0 L8.7809127,0 C8.7809127,0.0256 8.77777778,0.0544 8.77777778,0.08 C8.77777778,9.9776 16.6370238,18 26.3333333,18 C36.0296429,18 43.8888889,9.9776 43.8888889,0.08 C43.8888889,0.0544 43.885754,0.0256 43.885754,0 L34.4809921,0 L34.4809921,0 Z" id="路径" stroke="#FFFFFF" stroke-width="0.5" fill="#000000"></path>
            <rect id="矩形" stroke="#FFFFFF" stroke-width="0.5" fill="#000000" x="8.77777778" y="0" width="9.75308642" height="41"></rect>
            <ellipse id="椭圆形" fill="#00FF17" cx="2.92592593" cy="38" rx="2.92592593" ry="3"></ellipse>
            <path d="M18.1856746,41 C18.1856746,40.9744 18.1825397,40.9456 18.1825397,40.92 C18.1825397,36.3248 21.8315873,32.6 26.3333333,32.6 C30.8350794,32.6 34.484127,36.3248 34.484127,40.92 C34.484127,40.9456 34.4809921,40.9744 34.4809921,41 L43.885754,41 C43.885754,40.9744 43.8888889,40.9456 43.8888889,40.92 C43.8888889,31.0224 36.0296429,23 26.3333333,23 C16.6370238,23 8.77777778,31.0224 8.77777778,40.92 C8.77777778,40.9456 8.7809127,40.9744 8.7809127,41 L18.1856746,41 Z" id="路径" stroke="#FFFFFF" stroke-width="0.5" fill="#000000"></path>
        </g>
    </g>
</svg>