<?xml version="1.0" encoding="utf-8"?>
<!-- Generator: Adobe Illustrator 25.0.1, SVG Export Plug-In . SVG Version: 6.00 Build 0)  -->
<svg version="1.1" id="图层_1" xmlns="http://www.w3.org/2000/svg" xmlns:xlink="http://www.w3.org/1999/xlink" x="0px" y="0px"
	 viewBox="0 0 528 320" style="enable-background:new 0 0 528 320;" xml:space="preserve">
<style type="text/css">
	.st0{fill-rule:evenodd;clip-rule:evenodd;}
	.st1{fill-rule:evenodd;clip-rule:evenodd;fill:#D8D8D8;fill-opacity:0.2;stroke:#D8D8D8;}
	.st2{fill:none;stroke:#D8D8D8;}
	.st3{fill-rule:evenodd;clip-rule:evenodd;fill:#5B5B5B;}
	.st4{fill:none;stroke:#FFFFFF;stroke-dasharray:5;}
	.st5{fill-rule:evenodd;clip-rule:evenodd;fill:#00FF17;fill-opacity:0.2;stroke:#00FF17;}
	.st6{fill:none;stroke:#00FF17;}
	.st7{fill-rule:evenodd;clip-rule:evenodd;fill:#333333;stroke:#FFFFFF;}
	.st8{fill-rule:evenodd;clip-rule:evenodd;fill:#00FF17;stroke:#FFFFFF;}
	.st9{fill:#FFFFFF;}
	.st10{fill-rule:evenodd;clip-rule:evenodd;fill:#FFFFFF;}
</style>
<g id="品牌与视觉备份">
	<rect id="矩形" class="st0" width="528" height="320"/>
	<g id="编组" transform="translate(97.000000, 47.000000)">
		<g id="编组-3" transform="translate(0.000000, 31.000000)">
			<rect id="矩形_1_" x="0.5" y="0.5" class="st1" width="150" height="148"/>
			<rect id="矩形_2_" x="150.5" y="0.5" class="st1" width="95" height="148"/>
			<g id="编组-2" transform="translate(152.374097, 91.522094)">
				<path id="路径" class="st2" d="M32.5,57.1c33,0,59.8-25.6,59.8-57.1"/>
				<path id="路径_1_" class="st2" d="M0,22.7c0,19,16.1,34.4,36,34.4"/>
			</g>
			<g id="编组-2_1_" transform="translate(152.000000, 92.000000)">
				<path id="路径_2_" class="st2" d="M22,0C9.9,0,0,9.9,0,22.1"/>
				<path id="路径_3_" class="st2" d="M37,14.2C37,6.3,30.7,0,22.9,0"/>
				<path id="路径_4_" class="st2" d="M28.2,23c4.9,0,8.8-4,8.8-8.8"/>
				<path id="路径_5_" class="st2" d="M24.1,18c0,2.8,2.2,5,5,5"/>
			</g>
			<rect id="矩形备份-2" x="150.5" y="0.5" class="st2" width="95" height="92"/>
			<rect id="矩形备份-3" x="190.5" y="92.5" class="st2" width="55" height="56"/>
			<rect id="矩形备份-4" x="150.5" y="115.5" class="st2" width="40" height="33"/>
			<rect id="矩形备份-3_1_" x="181.5" y="105.5" class="st2" width="9" height="10"/>
			<rect id="矩形备份-4_1_" x="175.5" y="109.5" class="st2" width="6" height="6"/>
			<rect id="矩形备份-2_1_" x="175.5" y="92.5" class="st2" width="15" height="13"/>
			<rect id="矩形_3_" x="150.5" y="92.5" class="st2" width="25" height="23"/>
		</g>
		<path id="路径-3" class="st3" d="M46.6,70C18.4,95.3,1,137.5,1,176V32h145.3C107.3,32,74.8,44.7,46.6,70z"/>
		<path id="路径_6_" class="st4" d="M148.3,31C66.4,31,0,97.7,0,180"/>
		<rect id="矩形_4_" x="150.5" y="31.5" class="st5" width="95" height="92"/>
		<path id="路径_7_" class="st6" d="M245,125.1c0-51.9-41.9-94.1-93.6-94.1"/>
		<g id="编组-4" transform="translate(266.000000, 0.000000)">
			<g id="编组-22">
				<rect id="矩形_5_" x="0.5" y="20.5" class="st7" width="67" height="104"/>
				<rect id="矩形备份-9" x="0.5" y="0.5" class="st8" width="14" height="14"/>
				<rect id="矩形备份-9_1_" x="19.5" y="0.5" class="st8" width="48" height="14"/>
			</g>
			<g id="编组-3备份" transform="translate(0.000000, 20.000000)">
				<g id="编组-2_2_" transform="translate(1.000000, -0.000000)">
					<path id="路径_8_" class="st2" d="M66,66.4C66,29.7,36.5,0,0,0"/>
					<path id="路径_9_" class="st2" d="M23.6,104.6c23.3,0,42.2-17.9,42.2-40"/>
					<path id="路径_10_" class="st2" d="M1,80.9c0,13.1,11.2,23.8,25.1,23.8"/>
				</g>
				<g id="编组-2_3_" transform="translate(1.000000, 65.000000)">
					<path id="路径_11_" class="st2" d="M15.5,0C6.9,0,0,6.9,0,15.4"/>
					<path id="路径_12_" class="st2" d="M26,9.8C26,4.4,21.6,0,16.1,0"/>
					<path id="路径_13_" class="st2" d="M19.8,16c3.4,0,6.2-2.8,6.2-6.2"/>
					<path id="路径_14_" class="st2" d="M16.9,12.5c0,1.9,1.6,3.5,3.5,3.5"/>
				</g>
				<rect id="矩形备份-2_2_" x="0.5" y="0.5" class="st2" width="67" height="64"/>
				<rect id="矩形备份-3_2_" x="28.5" y="64.5" class="st2" width="39" height="40"/>
				<rect id="矩形备份-4_2_" x="0.5" y="81.5" class="st2" width="28" height="23"/>
				<rect id="矩形备份-3_3_" x="22.5" y="74.5" class="st2" width="6" height="7"/>
				<rect id="矩形备份-4_3_" x="17.5" y="77.5" class="st2" width="5" height="4"/>
				<rect id="矩形备份-2_3_" x="17.5" y="64.5" class="st2" width="11" height="10"/>
				<rect id="矩形_6_" x="0.5" y="64.5" class="st2" width="17" height="17"/>
			</g>
		</g>
		
			<g id="编组-21" transform="translate(254.833236, 171.077216) scale(1, -1) rotate(44.000000) translate(-254.833236, -171.077216) translate(198.000000, 149.000000)">
			<path id="路径-2" class="st9" d="M0.4,44.4c0.8-1.5,1.6-2.9,2.5-4.3L2,39.5c-0.8,1.4-1.7,2.9-2.5,4.4L0.4,44.4z M5.5,35.8
				c0.9-1.4,1.8-2.8,2.7-4.2l-0.8-0.6c-0.9,1.4-1.9,2.8-2.8,4.2L5.5,35.8z M11.1,27.6c1-1.4,2-2.7,3.1-3.9L13.4,23
				c-1,1.3-2.1,2.6-3.1,3.9L11.1,27.6z M17.5,19.9c1.1-1.2,2.3-2.4,3.5-3.5l-0.7-0.7c-1.2,1.1-2.4,2.3-3.5,3.6L17.5,19.9z
				 M24.7,13.1c1.3-1.1,2.6-2.1,3.9-3L28,9.2c-1.3,1-2.7,2-4,3.1L24.7,13.1z M32.8,7.3c1.4-0.8,2.9-1.6,4.4-2.3l-0.4-0.9
				c-1.5,0.7-3,1.5-4.5,2.4L32.8,7.3z M41.8,3.1c1.6-0.5,3.1-1,4.7-1.4l-0.2-1c-1.6,0.4-3.3,0.9-4.8,1.4L41.8,3.1z M51.4,0.9
				c1.6-0.2,3.3-0.3,4.9-0.4l0-1c-1.7,0-3.4,0.2-5,0.4L51.4,0.9z M61.3,0.6c1.6,0.1,3.3,0.3,4.9,0.6l0.2-1c-1.7-0.3-3.4-0.5-5-0.6
				L61.3,0.6z M71.1,2.2c1.6,0.4,3.2,0.9,4.8,1.4l0.3-1c-1.6-0.5-3.2-1-4.8-1.4L71.1,2.2z M80.5,5.3c1.5,0.6,3,1.3,4.6,2l0.4-0.9
				c-1.5-0.7-3.1-1.4-4.6-2L80.5,5.3z M89.6,9.6c1.4,0.8,2.9,1.6,4.3,2.4l0.5-0.9c-1.5-0.9-2.9-1.7-4.4-2.5L89.6,9.6z M98.2,14.6
				c1.4,0.9,2.7,1.8,4.1,2.8l0.6-0.8c-1.4-1-2.8-1.9-4.2-2.8L98.2,14.6z"/>
			<polygon id="三角形" class="st10" points="110.8,24.7 100.9,21.7 107.5,15.5 			"/>
		</g>
	</g>
</g>
</svg>
