<?xml version="1.0" encoding="utf-8"?>
<!-- Generator: Adobe Illustrator 25.0.1, SVG Export Plug-In . SVG Version: 6.00 Build 0)  -->
<svg version="1.1" id="图层_1" xmlns="http://www.w3.org/2000/svg" xmlns:xlink="http://www.w3.org/1999/xlink" x="0px" y="0px"
	 viewBox="0 0 528 320" style="enable-background:new 0 0 528 320;" xml:space="preserve">
<style type="text/css">
	.st0{fill-rule:evenodd;clip-rule:evenodd;}
	.st1{fill-rule:evenodd;clip-rule:evenodd;fill:#FFFFFF;fill-opacity:0.2;stroke:#FFFFFF;}
	.st2{fill:#FFFFFF;}
	.st3{fill-rule:evenodd;clip-rule:evenodd;fill:#333333;stroke:#FFFFFF;}
	.st4{fill-rule:evenodd;clip-rule:evenodd;fill:#00FF17;fill-opacity:0.2;stroke:#00FF17;}
	.st5{fill:none;stroke:#00FF17;stroke-linecap:square;}
	.st6{fill:none;stroke:#FFFFFF;stroke-linecap:square;}
	.st7{fill-rule:evenodd;clip-rule:evenodd;fill:#D8D8D8;}
	.st8{opacity:0.6;fill-rule:evenodd;clip-rule:evenodd;fill:#D8D8D8;enable-background:new    ;}
	.st9{fill-rule:evenodd;clip-rule:evenodd;fill:#00FF17;}
	.st10{fill-rule:evenodd;clip-rule:evenodd;fill:#00FF17;stroke:#FFFFFF;}
	.st11{fill:none;stroke:#333333;stroke-linecap:square;}
	.st12{fill-rule:evenodd;clip-rule:evenodd;fill:#5B5B5B;stroke:#FFFFFF;}
	.st13{fill-rule:evenodd;clip-rule:evenodd;fill:#FFFFFF;}
</style>
<rect id="矩形" class="st0" width="528" height="320"/>
<g id="编组" transform="translate(124.000000, 71.000000)">
	<rect id="矩形_1_" x="0.5" y="0.5" class="st1" width="245" height="156"/>
	<path id="矩形_2_" class="st2" d="M11,145h-1v2h1l-1-1h1V145z M11,146v1h2v-1H11z M23,146h-5v1h5V146z M33,146h-5v1h5V146z
		 M43,146h-5v1h5V146z M49,143h-1v3h1l-1,1h1V143z M11,135h-1v5h1V135z M49,133h-1v5h1V133z M11,125h-1v5h1V125z M49,123h-1v5h1V123
		z M11,115h-1v5h1V115z M49,113h-1v5h1V113z M11,105h-1v5h1V105z M49,103h-1v5h1V103z M11,95h-1v5h1V95z M49,93h-1v5h1V93z M11,85
		h-1v5h1V85z M49,83h-1v5h1V83z M11,75h-1v5h1V75z M49,73h-1v5h1V73z M11,65h-1v5h1V65z M49,63h-1v5h1V63z M11,55h-1v5h1V55z M49,53
		h-1v5h1V53z M11,45h-1v5h1V45z M49,43h-1v5h1V43z M11,35h-1v5h1V35z M49,33h-1v5h1V33z M11,25h-1v5h1V25z M49,23h-6v1h5v4h1V23z
		 M18,23h-5v1h5V23z M28,23h-5v1h5V23z M38,23h-5v1h5V23z"/>
	<rect id="矩形备份" x="59.5" y="23.5" class="st3" width="176" height="12"/>
	<g id="编组-18" transform="translate(59.000000, 46.000000)">
		<rect id="矩形备份-7" x="0.5" y="0.5" class="st4" width="89" height="100"/>
		<line id="直线-11" class="st5" x1="0.4" y1="100" x2="89.6" y2="1"/>
		<line id="直线-11_1_" class="st5" x1="89.6" y1="100" x2="0.4" y2="1"/>
	</g>
	<g id="编组-18备份" transform="translate(159.000000, 46.000000)">
		<rect id="矩形备份-7_1_" x="0.5" y="0.5" class="st3" width="76" height="43"/>
		<line id="直线-11_2_" class="st6" x1="0.3" y1="43.6" x2="76.7" y2="0.4"/>
		<line id="直线-11_3_" class="st6" x1="76.7" y1="43.6" x2="0.3" y2="0.4"/>
	</g>
	<g id="编组-18备份-2" transform="translate(159.000000, 100.000000)">
		<rect id="矩形备份-7_2_" x="0.5" y="0.5" class="st3" width="76" height="45"/>
		<line id="直线-11_4_" class="st6" x1="0.3" y1="45.5" x2="76.7" y2="0.5"/>
		<line id="直线-11_5_" class="st6" x1="76.7" y1="45.5" x2="0.3" y2="0.5"/>
	</g>
	<rect id="矩形_3_" x="0.5" y="0.5" class="st1" width="245" height="12"/>
	<circle id="椭圆形" class="st7" cx="6.5" cy="6.5" r="2.5"/>
	<circle id="椭圆形备份" class="st8" cx="13.5" cy="6.5" r="2.5"/>
	<circle id="椭圆形备份-2" class="st9" cx="20.5" cy="6.5" r="2.5"/>
	<g id="编组-22" transform="translate(212.000000, 66.000000)">
		<rect id="矩形_4_" x="0.5" y="0.5" class="st3" width="67" height="111"/>
		<g id="编组-18_1_" transform="translate(7.000000, 49.000000)">
			<rect id="矩形备份-7_3_" x="0.5" y="0.5" class="st10" width="53" height="54"/>
			<line id="直线-11_6_" class="st11" x1="0.2" y1="54.5" x2="53.8" y2="0.5"/>
			<line id="直线-11_7_" class="st11" x1="53.8" y1="54.5" x2="0.2" y2="0.5"/>
		</g>
		<rect id="矩形_5_" x="0.5" y="0.5" class="st12" width="67" height="22"/>
		<rect id="矩形备份-9" x="24.5" y="30.5" class="st1" width="36" height="11"/>
		<rect id="矩形备份-9_1_" x="7.5" y="30.5" class="st1" width="11" height="11"/>
	</g>
	
		<g id="编组-21" transform="translate(174.621117, 184.221350) scale(1, -1) translate(-174.621117, -184.221350) translate(117.787881, 162.144134)">
		<path id="路径-2" class="st2" d="M0.4,44.4c0.8-1.5,1.6-2.9,2.5-4.3L2,39.5c-0.8,1.4-1.7,2.9-2.5,4.4L0.4,44.4z M5.5,35.8
			c0.9-1.4,1.8-2.8,2.7-4.2l-0.8-0.6c-0.9,1.4-1.9,2.8-2.8,4.2L5.5,35.8z M11.1,27.6c1-1.4,2-2.7,3.1-3.9L13.4,23
			c-1,1.3-2.1,2.6-3.1,3.9L11.1,27.6z M17.5,19.9c1.1-1.2,2.3-2.4,3.5-3.5l-0.7-0.7c-1.2,1.1-2.4,2.3-3.5,3.6L17.5,19.9z M24.7,13.1
			c1.3-1.1,2.6-2.1,3.9-3L28,9.2c-1.3,1-2.7,2-4,3.1L24.7,13.1z M32.8,7.3c1.4-0.8,2.9-1.6,4.4-2.3l-0.4-0.9c-1.5,0.7-3,1.5-4.5,2.4
			L32.8,7.3z M41.8,3.1c1.6-0.5,3.1-1,4.7-1.4l-0.2-1c-1.6,0.4-3.3,0.9-4.8,1.4L41.8,3.1z M51.4,0.9c1.6-0.2,3.3-0.3,4.9-0.4l0-1
			c-1.7,0-3.4,0.2-5,0.4L51.4,0.9z M61.3,0.6c1.6,0.1,3.3,0.3,4.9,0.6l0.2-1c-1.7-0.3-3.4-0.5-5-0.6L61.3,0.6z M71.1,2.2
			c1.6,0.4,3.2,0.9,4.8,1.4l0.3-1c-1.6-0.5-3.2-1-4.8-1.4L71.1,2.2z M80.5,5.3c1.5,0.6,3,1.3,4.6,2l0.4-0.9c-1.5-0.7-3.1-1.4-4.6-2
			L80.5,5.3z M89.6,9.6c1.4,0.8,2.9,1.6,4.3,2.4l0.5-0.9c-1.5-0.9-2.9-1.7-4.4-2.5L89.6,9.6z M98.2,14.6c1.4,0.9,2.7,1.8,4.1,2.8
			l0.6-0.8c-1.4-1-2.8-1.9-4.2-2.8L98.2,14.6z"/>
		<polygon id="三角形" class="st13" points="110.8,24.7 100.9,21.7 107.5,15.5 		"/>
	</g>
</g>
</svg>
